# xmcd CD database file
#
# Track frame offsets:
#	150
#	14447
#	29537
#	46085
#	60242
#	74387
#	87715
#	105129
#	121179
#	134205
#	147947
#
# Disc length: 2181 seconds
#
# Revision: 5
# Processed by: cddbd v1.5.2PL0 Copyright (c) Steve Scherf et al.
# Submitted via: CDex 1.70beta2
#
DISCID=9608830b
DTITLE=Chet Atkins and Tommy Emmanuel - The Day Finger Pickers Took Over The World.
DYEAR=1997
DGENRE=Instrumental
TTITLE0=Borsalino
TTITLE1=To 'b' Or Not To 'b'
TTITLE2=The Day Finger Pickers Took Over The World
TTITLE3=Tip Toe Through The Bluegrass
TTITLE4=News From The Outback
TTITLE5=Ode To Mel Bay
TTITLE6=Dixie McGuire
TTITLE7=Saltwater
TTITLE8=Mr. Guitar
TTITLE9=Road To Gundaghi - Waltzing Matilda
TTITLE10=Smokey Mountain Lullaby
EXTD=YEAR: 1997
EXTT0=
EXTT1=
EXTT2=
EXTT3=
EXTT4=
EXTT5=
EXTT6=
EXTT7=
EXTT8=
EXTT9=
EXTT10=
PLAYORDER=
